<?xml version="1.0" encoding="UTF-8" standalone="no"?>
<!-- Created with Inkscape (http://www.inkscape.org/) -->

<svg
   version="1.1"
   id="svg2"
   width="1524.4532"
   height="502.37045"
   viewBox="0 0 1524.4533 502.37045"
   sodipodi:docname="MLS_SeasonPass_Blk.svg"
   inkscape:version="1.2.2 (1:1.2.2+202212051552+b0a8486541)"
   xmlns:inkscape="http://www.inkscape.org/namespaces/inkscape"
   xmlns:sodipodi="http://sodipodi.sourceforge.net/DTD/sodipodi-0.dtd"
   xmlns="http://www.w3.org/2000/svg"
   xmlns:svg="http://www.w3.org/2000/svg">
  <defs
     id="defs6">
    <clipPath
       clipPathUnits="userSpaceOnUse"
       id="clipPath54">
      <path
         d="M 0,0 H 19643.9 V 3769.72 H 0 Z"
         id="path52" />
    </clipPath>
    <clipPath
       clipPathUnits="userSpaceOnUse"
       id="clipPath60">
      <path
         d="m 17054.8,0.0507813 c -45,0 -90,0.3398437 -135,0.6171877 -37.9,0.222656 -75.8,0.660161 -113.7,1.691411 -82.5,2.23046 -165.8,7.08203 -247.4,21.75002 -82.9,14.8789 -160.1,39.1992 -235.4,77.5196 -74,37.66 -141.6,86.84 -200.3,145.512 -58.7,58.687 -107.9,126.359 -145.6,200.32 -38.3,75.238 -62.6,152.328 -77.5,235.16 -14.7,81.641 -19.6,164.91 -21.8,247.457 -1,37.902 -2,75.782 -2.1,113.682 -0.1,49.1 0,1635.28 0,1680.35 0.2,37.92 1.4,75.82 2.4,113.71 2.3,82.57 7.1,165.84 21.8,247.49 14.9,82.9 39.2,160.06 77.5,235.37 37.7,73.97 86.8,141.68 145.5,200.36 58.7,58.71 126.3,107.92 200.3,145.59 75.2,38.32 152.3,62.62 235.1,77.52 81.7,14.68 164.9,19.54 247.5,21.78 37.9,1.02 75.7,1.46 113.6,1.7 45,0.27 135,0.24 135,0.24 l 1410.5,0.02 c 0,0 90.1,0.01 135.1,-0.26 37.9,-0.22 75.8,-0.67 113.7,-1.7 82.5,-2.22 165.8,-7.08 247.4,-21.74 82.9,-14.89 160.1,-39.21 235.4,-77.53 73.9,-37.66 141.6,-86.84 200.3,-145.51 58.7,-58.69 107.9,-126.35 145.6,-200.31 38.3,-75.25 62.6,-152.33 77.5,-235.16 14.7,-81.65 19.5,-164.92 21.8,-247.47 1,-37.9 1.6,-75.78 1.8,-113.68 0.1,-33.5 0,-1545.66 0,-1545.66 0,0 0.1,-90.02 -0.1,-135.02 -0.3,-37.92 -0.7,-75.819 -1.7,-113.721 -2.3,-82.57 -7.1,-165.84 -21.8,-247.488 -14.9,-82.903 -39.2,-160.063 -77.5,-235.36 -37.6,-73.98 -86.8,-141.679 -145.5,-200.371 -58.7,-58.711 -126.3,-107.922 -200.3,-145.582 -75.2,-38.3163 -152.3,-62.6288 -235.1,-77.5272 -81.7,-14.67971 -164.9,-19.53908 -247.5,-21.78127 -37.8,-1.00781 -75.7,-1.859374 -113.6,-1.9687487 -43.6,-0.1210938 -1545.9,0 -1545.9,0 z"
         id="path58" />
    </clipPath>
    <linearGradient
       x1="0"
       y1="0"
       x2="1"
       y2="0"
       gradientUnits="userSpaceOnUse"
       gradientTransform="matrix(0,3744.6,3744.6,0,17759.9,11.2197)"
       spreadMethod="pad"
       id="linearGradient66">
      <stop
         style="stop-opacity:1;stop-color:#171514"
         offset="0"
         id="stop62" />
      <stop
         style="stop-opacity:1;stop-color:#2e2d2d"
         offset="1"
         id="stop64" />
    </linearGradient>
    <linearGradient
       x1="0"
       y1="0"
       x2="1"
       y2="0"
       gradientUnits="userSpaceOnUse"
       gradientTransform="matrix(0,3744.6,3744.6,0,17759.9,11.2197)"
       spreadMethod="pad"
       id="linearGradient74">
      <stop
         style="stop-opacity:1;stop-color:#151312"
         offset="0"
         id="stop70" />
      <stop
         style="stop-opacity:1;stop-color:#2a2828"
         offset="1"
         id="stop72" />
    </linearGradient>
  </defs>
  <sodipodi:namedview
     id="namedview4"
     pagecolor="#ffffff"
     bordercolor="#666666"
     borderopacity="1.0"
     inkscape:showpageshadow="2"
     inkscape:pageopacity="0.0"
     inkscape:pagecheckerboard="0"
     inkscape:deskcolor="#d1d1d1"
     showgrid="false"
     inkscape:zoom="0.46953338"
     inkscape:cx="1317.2652"
     inkscape:cy="258.76754"
     inkscape:window-width="1762"
     inkscape:window-height="1172"
     inkscape:window-x="2058"
     inkscape:window-y="228"
     inkscape:window-maximized="0"
     inkscape:current-layer="g10">
    <inkscape:page
       x="0"
       y="0"
       id="page8"
       width="1524.4532"
       height="502.37045" />
  </sodipodi:namedview>
  <g
     id="g10"
     inkscape:groupmode="layer"
     inkscape:label="Page 1"
     transform="matrix(1.3333333,0,0,-1.3333333,0,502.62932)">
    <g
       id="g12"
       transform="scale(0.1)">
      <path
         d="m 1347.78,2358.81 42.7,-131.62 -111.99,81.37 -111.98,-81.37 42.77,131.62 -111.99,81.36 h 138.5 l 42.7,131.7 42.77,-131.7 h 138.43 l -111.91,-81.36"
         style="fill:#100f0d;fill-opacity:1;fill-rule:nonzero;stroke:none"
         id="path14" />
      <path
         d="m 703.219,2358.81 111.988,81.36 H 676.777 L 634,2571.87 591.223,2440.17 H 452.805 l 111.976,-81.36 -42.765,-131.62 111.984,81.37 111.918,-81.37 -42.699,131.62"
         style="fill:#100f0d;fill-opacity:1;fill-rule:nonzero;stroke:none"
         id="path16" />
      <path
         d="M 999.043,2011.5 956.266,2143.19 913.531,2011.5 H 775.07 l 111.977,-81.37 -42.805,-131.7 112.024,81.37 111.984,-81.37 -42.81,131.7 112.02,81.37 H 999.043"
         style="fill:#100f0d;fill-opacity:1;fill-rule:nonzero;stroke:none"
         id="path18" />
      <path
         d="M 580.082,2874.43 453.07,3163.59 h -3.949 v -385.94 c 0,-6.04 -4.019,-10.14 -10.058,-10.14 h -113.93 c -6.074,0 -10.102,4.1 -10.102,10.14 v 665.12 c 0,6.04 4.028,10.07 10.102,10.07 h 119.969 c 7.968,0 13.086,-3.02 16.058,-10.07 l 173.348,-391.05 h 4.105 l 170.211,391.05 c 3.055,7.05 8.082,10.07 16.176,10.07 h 117.867 c 6.082,0 10.071,-4.03 10.071,-10.07 v -665.12 c 0,-6.04 -3.989,-10.14 -10.071,-10.14 H 829.031 c -6.039,0 -10.07,4.1 -10.07,10.14 v 385.94 h -4.027 L 687.973,2874.43 c -4.039,-9.14 -10.114,-13.16 -19.25,-13.16 h -69.477 c -9.023,0 -15.105,4.02 -19.164,13.16"
         style="fill:#100f0d;fill-opacity:1;fill-rule:nonzero;stroke:none"
         id="path20" />
      <path
         d="m 1055.29,2767.51 h 446.41 c 6.04,0 10.14,4.1 10.14,10.14 v 111.87 c 0,6.04 -4.1,10.07 -10.14,10.07 h -302.25 c -4.11,0 -6.08,1.93 -6.08,6.04 v 537.14 c 0,6.04 -4.07,10.07 -10.07,10.07 h -128.01 c -6.04,0 -10.07,-4.03 -10.07,-10.07 v -665.12 c 0,-6.04 4.03,-10.14 10.07,-10.14"
         style="fill:#100f0d;fill-opacity:1;fill-rule:nonzero;stroke:none"
         id="path22" />
      <path
         d="m 1883.61,3179.77 -36.27,4.96 c -78.58,11.07 -106.84,36.31 -106.84,75.64 0,43.35 31.24,74.56 91.74,74.56 56.48,0 106.77,-18.13 159.18,-52.42 5.11,-2.94 10.14,-1.94 14.17,3.1 l 61.47,91.67 c 4.99,7.04 3.99,11.06 -1.98,15.09 -57.52,44.36 -142.18,71.54 -232.84,71.54 -148.18,0 -242.9,-83.61 -242.9,-209.58 0,-120.93 77.65,-186.43 216.69,-205.63 l 36.28,-4.95 c 81.68,-11.15 105.84,-36.39 105.84,-76.65 0,-48.31 -40.31,-81.6 -111.88,-81.6 -72.55,0 -134.02,34.22 -179.34,70.53 -5.12,4.02 -11.12,4.02 -15.18,-1.01 l -76.57,-87.72 c -5.04,-6.03 -3.05,-13.08 1,-17.1 53.39,-51.41 157.18,-93.76 264.09,-93.76 177.29,0 269.12,91.74 269.12,215.69 0,123.95 -74.68,188.44 -215.78,207.64"
         style="fill:#100f0d;fill-opacity:1;fill-rule:nonzero;stroke:none"
         id="path24" />
      <path
         d="M 3231.66,1623 C 3153.74,1395.15 3040.27,1181.86 2894.34,989.078 2749.9,798.32 2577.27,632.238 2381.19,495.371 2188.77,361.199 1978.3,258.301 1755.25,189.32 1532.08,258.301 1321.65,361.199 1129.3,495.371 977.285,601.508 839.516,725.148 717.883,864.199 L 3352.94,3499.21 c 0,-367.75 0.08,-1136.15 0.08,-1142.18 0,-251.47 -40.81,-498.44 -121.36,-734.03 z M 616.16,989.078 C 470.223,1181.86 356.684,1395.15 278.84,1623 c -80.563,235.59 -121.434,482.56 -121.434,734.03 0,6.73 0.149,970.08 0.149,1255.29 H 3243.42 L 617.938,986.762 c -0.665,0.769 -1.196,1.468 -1.778,2.316 z M 3510.33,3691.06 v 78.66 H 0.125 v -78.66 c 0,0 -0.125,-1326.14 -0.125,-1334.03 0,-268.81 43.707,-532.97 129.84,-784.97 83.305,-243.8 204.734,-471.88 360.773,-677.982 4.957,-6.578 10.078,-13 15.028,-19.5 L 44.9844,413.922 156.281,302.52 606.363,752.641 C 734.609,607.238 879.66,477.641 1039.23,366.309 1251.86,217.969 1485.2,105.328 1732.79,31.6211 l 22.46,-6.6602 22.45,6.6602 c 247.59,73.7069 480.93,186.3479 693.57,334.6879 209.55,146.242 394.15,323.851 548.53,527.769 156.11,206.102 277.48,434.182 360.78,677.982 86.13,252 129.9,516.16 129.9,784.97 0,7.89 -0.15,1334.03 -0.15,1334.03"
         style="fill:#100f0d;fill-opacity:1;fill-rule:nonzero;stroke:none"
         id="path26" />
      <path
         d="m 4181,2519.55 c 22.13,-154.96 173.59,-248.16 383.32,-248.16 202.73,0 343.69,100.19 343.69,240.01 0,121.16 -83.89,195.73 -302.92,241.17 l -180.6,37.29 c -336.71,68.74 -493.99,227.2 -493.99,473.03 0,295.93 259.81,496.33 624.49,496.33 371.68,0 617.51,-202.72 624.49,-503.33 H 4891.7 c -13.97,158.46 -146.79,254 -339.05,254 -186.41,0 -319.22,-88.56 -319.22,-229.53 0,-114.17 83.88,-187.57 293.61,-231.86 l 181.75,-37.29 c 354.18,-73.38 502.15,-215.53 502.15,-464.87 0,-321.56 -252.81,-524.28 -657.11,-524.28 -389.14,0 -646.64,189.9 -660.61,497.49 H 4181"
         style="fill:#100f0d;fill-opacity:1;fill-rule:nonzero;stroke:none"
         id="path28" />
      <path
         d="m 5618.2,2788.7 h 576.74 c -5.83,174.75 -117.68,297.08 -284.3,297.08 -163.1,0 -280.78,-124.65 -292.44,-297.08 z m 849.37,-369.35 c -37.29,-233.01 -254,-393.81 -546.45,-393.81 -370.49,0 -594.19,243.51 -594.19,637.32 0,390.3 226.02,647.8 582.55,647.8 350.7,0 569.73,-243.51 569.73,-618.67 v -94.37 h -863.34 v -17.48 c 0,-198.08 121.18,-330.9 311.08,-330.9 135.16,0 237.69,67.58 269.15,170.11 h 271.47"
         style="fill:#100f0d;fill-opacity:1;fill-rule:nonzero;stroke:none"
         id="path30" />
      <path
         d="m 7383.96,2507.9 v 94.38 l -285.46,-17.49 c -139.81,-9.31 -220.2,-72.23 -220.2,-170.11 0,-101.36 83.87,-165.44 209.71,-165.44 164.28,0 295.95,109.53 295.95,258.66 z m -795.78,-104.86 c 0,219.03 168.94,350.69 469.53,369.35 l 326.25,18.63 v 88.55 c 0,129.32 -87.4,203.89 -230.71,203.89 -137.48,0 -224.86,-66.4 -243.49,-168.94 h -269.15 c 12.81,230.7 209.71,396.14 524.29,396.14 306.43,0 505.66,-161.96 505.66,-410.12 v -850.53 h -279.62 v 196.91 h -5.82 c -71.09,-133.99 -226.04,-216.72 -384.48,-216.72 -238.85,0 -412.46,150.31 -412.46,372.84"
         style="fill:#100f0d;fill-opacity:1;fill-rule:nonzero;stroke:none"
         id="path32" />
      <path
         d="m 8348.1,3310.66 c 300.61,0 491.67,-161.96 498.67,-396.14 h -270.31 c -11.65,111.84 -94.38,182.93 -228.36,182.93 -128.16,0 -213.22,-60.6 -213.22,-151.47 0,-71.07 51.28,-120 180.6,-149.14 l 205.05,-45.43 c 256.34,-57.09 355.36,-156.13 355.36,-335.55 0,-233.02 -214.38,-390.32 -517.31,-390.32 -322.72,0 -513.8,153.8 -537.11,392.64 h 285.46 c 22.13,-119.99 104.86,-180.59 251.65,-180.59 140.99,0 228.37,58.26 228.37,150.3 0,74.56 -44.27,116.51 -173.61,145.65 l -205.05,45.43 c -236.53,52.43 -355.36,168.94 -355.36,351.85 0,226.05 196.9,379.84 495.17,379.84"
         style="fill:#100f0d;fill-opacity:1;fill-rule:nonzero;stroke:none"
         id="path34" />
      <path
         d="m 9880.81,2667.52 c 0,262.14 -118.85,412.44 -302.92,412.44 -182.92,0 -302.93,-150.3 -302.93,-412.44 0,-263.31 118.83,-412.44 302.93,-412.44 184.07,0 302.92,149.13 302.92,412.44 z m -900.62,0 c 0,398.47 237.67,643.14 597.7,643.14 360,0 597.71,-243.51 597.71,-643.14 0,-400.79 -235.37,-641.98 -597.71,-641.98 -362.35,0 -597.7,241.19 -597.7,641.98"
         style="fill:#100f0d;fill-opacity:1;fill-rule:nonzero;stroke:none"
         id="path36" />
      <path
         d="m 10333.5,3285.03 h 278.5 v -212.06 h 5.8 c 66.4,146.82 198.1,235.35 388,235.35 272.6,0 427.6,-174.77 427.6,-460.21 v -798.1 h -290.2 v 739.85 c 0,174.77 -81.5,272.63 -247,272.63 -166.6,0 -272.6,-120 -272.6,-297.11 v -715.37 h -290.1 v 1235.02"
         style="fill:#100f0d;fill-opacity:1;fill-rule:nonzero;stroke:none"
         id="path38" />
      <path
         d="m 4263.71,824.5 h 272.63 c 215.56,0 341.39,116.512 341.39,320.4 0,201.56 -124.67,316.91 -340.21,316.91 h -273.81 z m 353.02,883.15 c 334.39,0 566.26,-227.22 566.26,-562.75 0,-335.529 -238.85,-562.759 -579.07,-562.759 H 4263.71 V 26.3984 H 3963.12 V 1707.65 h 653.61"
         style="fill:#100f0d;fill-opacity:1;fill-rule:nonzero;stroke:none"
         id="path40" />
      <path
         d="m 6001.52,484.281 v 94.379 l -285.46,-17.492 c -139.81,-9.316 -220.2,-72.238 -220.2,-170.098 0,-101.351 83.87,-165.429 209.71,-165.429 164.28,0 295.95,109.507 295.95,258.64 z M 5205.74,379.418 c 0,219.051 168.94,350.703 469.53,369.352 l 326.25,18.648 v 88.543 c 0,129.32 -87.4,203.879 -230.71,203.879 -137.48,0 -224.86,-66.399 -243.51,-168.942 h -269.13 c 12.81,230.702 209.71,396.132 524.29,396.132 306.43,0 505.66,-161.95 505.66,-410.1 V 26.3984 H 6008.5 V 223.281 h -5.82 C 5931.59,89.3203 5776.64,6.58984 5618.2,6.58984 c -238.85,0 -412.46,150.28916 -412.46,372.82816"
         style="fill:#100f0d;fill-opacity:1;fill-rule:nonzero;stroke:none"
         id="path42" />
      <path
         d="m 6965.66,1287.03 c 300.6,0 491.66,-161.95 498.67,-396.132 h -270.31 c -11.65,111.872 -94.38,182.912 -228.36,182.912 -128.16,0 -213.22,-60.56 -213.22,-151.451 0,-71.089 51.28,-120 180.6,-149.14 L 7138.1,727.801 C 7394.42,670.68 7493.45,571.66 7493.45,392.23 7493.45,159.199 7279.07,1.94141 6976.14,1.94141 6653.4,1.94141 6462.34,155.719 6439.03,394.59 h 285.46 c 22.13,-120.039 104.86,-180.602 251.65,-180.602 140.99,0 228.37,58.242 228.37,150.301 0,74.563 -44.27,116.512 -173.61,145.609 l -205.05,45.473 c -236.53,52.43 -355.36,168.938 -355.36,351.859 0,226.02 196.9,379.8 495.17,379.8"
         style="fill:#100f0d;fill-opacity:1;fill-rule:nonzero;stroke:none"
         id="path44" />
      <path
         d="m 8122.04,1287.03 c 300.61,0 491.67,-161.95 498.67,-396.132 H 8350.4 c -11.65,111.872 -94.38,182.912 -228.36,182.912 -128.16,0 -213.21,-60.56 -213.21,-151.451 0,-71.089 51.27,-120 180.59,-149.14 l 205.05,-45.418 C 8550.81,670.68 8649.83,571.66 8649.83,392.23 8649.83,159.199 8435.45,1.94141 8132.53,1.94141 7809.8,1.94141 7618.72,155.719 7595.41,394.59 h 285.46 c 22.13,-120.039 104.86,-180.602 251.66,-180.602 140.98,0 228.36,58.242 228.36,150.301 0,74.563 -44.27,116.512 -173.61,145.609 l -205.05,45.473 c -236.53,52.43 -355.36,168.938 -355.36,351.859 0,226.02 196.9,379.8 495.17,379.8"
         style="fill:#100f0d;fill-opacity:1;fill-rule:nonzero;stroke:none"
         id="path46" />
    </g>
  </g>
</svg>
