<?xml version="1.0" encoding="utf-8"?>
<!-- Generator: Adobe Illustrator 25.2.3, SVG Export Plug-In . SVG Version: 6.00 Build 0)  -->
<svg version="1.1" id="Capa_1" xmlns="http://www.w3.org/2000/svg" xmlns:xlink="http://www.w3.org/1999/xlink" x="0px" y="0px"
	 viewBox="0 0 1601.9 872.4" style="enable-background:new 0 0 1601.9 872.4;" xml:space="preserve">
<style type="text/css">
	.Sombra_x0020_paralela{fill:none;}
	.Esquinas_x0020_redondeadas_x0020_2_x0020_pt_x002E_{fill:#FFFFFF;stroke:#231F20;stroke-miterlimit:10;}
	.Reflejo_x0020_vivo_x0020_X{fill:none;}
	.Bisel_x0020_suave{fill:url(#SVGID_1_);}
	.Atardecer{fill:#FFFFFF;}
	.Follaje_GS{fill:#FFDD00;}
	.Pompadour_GS{fill-rule:evenodd;clip-rule:evenodd;fill:#44ADE2;}
	.st0{fill:#010101;}
	.st1{fill:#675EA9;}
</style>
<linearGradient id="SVGID_1_" gradientUnits="userSpaceOnUse" x1="81.2634" y1="-101.9609" x2="81.9705" y2="-101.2538">
	<stop  offset="0" style="stop-color:#DEDFE3"/>
	<stop  offset="0.1783" style="stop-color:#DADBDF"/>
	<stop  offset="0.3611" style="stop-color:#CECFD3"/>
	<stop  offset="0.546" style="stop-color:#B9BCBF"/>
	<stop  offset="0.7324" style="stop-color:#9CA0A2"/>
	<stop  offset="0.9181" style="stop-color:#787D7E"/>
	<stop  offset="1" style="stop-color:#656B6C"/>
</linearGradient>
<g>
	<polygon class="st0" points="761.8,454.5 847.4,454.5 847.4,410.6 761.8,410.6 761.8,380 856.3,380 856.3,332.8 709.5,332.8 
		709.5,534.2 857.6,534.2 857.6,486.9 761.8,486.9 	"/>
	<path class="st0" d="M592,460.6l-44-126.4l-56.5,0.9l74.5,199h49.1l72.2-201.3c-19,0-37.5,0.5-56,0.5L592,460.6z"/>
	<path class="st0" d="M1053.9,402.2c0-43.5-30.5-69.4-77.7-69.4H891v201.3h51.4v-61.6h25.9l32.4,61.6h59.2l-43.5-70.4
		C1039.1,453.1,1053.9,433.3,1053.9,402.2z M974.8,428.6h-32.4v-49.1h32.4c17.6,0,28.2,8.8,28.2,25
		C1003,418.9,992.8,428.6,974.8,428.6z"/>
	<path class="st0" d="M416.6,534.2h51.8V335.6c-17.1,0.5-34.7,0.9-51.8,0.9V534.2z"/>
	<polygon class="st0" points="1515.3,488.8 1515.3,347.1 1464.4,344.8 1464.4,534.2 1601.9,534.2 1601.9,489.7 	"/>
	<path class="st0" d="M119.4,451.8c0,26.4-13.4,38.9-33.8,38.9c-20.8,0-33.8-12.1-33.8-38.9V348.5c-17.1,1-34.7,1.9-51.8,2.3v102.8
		c0,57.4,32.9,83.8,85.2,83.8c51.8,0,85.6-26.9,85.6-88V343.9l-51.4,1.8V451.8z"/>
	<path class="st0" d="M1315.9,338.8l-78.2,195.3h53.2l13.4-34.7h70.3l13.5,34.7h54.6l-77.7-194L1315.9,338.8z M1319.1,457.3
		l20.9-54.6l20.3,55.1L1319.1,457.3z"/>
	<path class="st0" d="M1161.3,410.6c-25.5-6.5-31.9-13-31.9-19.9c0-7.4,6-12.5,18.5-12.5c16.2,0,34.2,6.9,51.4,19.9l25-37.9
		c-19.9-17.6-44-27.8-75-27.8c-44,0-71.3,25.5-71.3,63c0,35.6,30.1,53.2,69.4,63.4c24.5,6.5,30.6,10.7,30.6,19.4
		s-7.4,13.4-20.8,13.4c-21.3,0-41.2-8.3-59.2-24.1l-28.2,36.6c22.2,22.2,53.2,33.3,85.6,33.3c44.4,0,74.1-24.1,74.1-63.9
		C1229.3,436,1203.4,421.2,1161.3,410.6z"/>
	<polygon class="st0" points="328.2,442 252.7,341.1 205.5,342.5 205.5,534.1 255.5,534.1 255.5,428.1 333.7,534.1 378.6,534.1 
		378.6,337.4 328.2,338.8 	"/>
</g>
<g>
	<path class="st1" d="M785,0C596.6,0,435.5,120.4,375.4,288.8l64.3-1.4C498.5,137,633.2,36.1,799.3,36.1
		c171.7,0,321.2,112.5,378.6,265.2h20.9C1142.3,126.9,978.9,0,785,0z"/>
	<path class="st1" d="M797,847c-187.9,0-323-108.8-378.6-262.4h-39.8c55.5,169.9,215.2,287.9,405,287.9c120.2,0,226.7-44,303-118.6
		h-28.9C989.5,812,901.1,847,797,847z"/>
</g>
<g>
	<path class="st0" d="M894,679.8c-13.1,0-22.3-11-22.3-25v-0.3c0-13.7,9.2-24.8,22.3-24.8c9,0,15.1,4.4,20.4,11l19.5-15.1
		c-8.3-11.4-20.6-19.4-39.7-19.4c-28.3,0-49.2,21.4-49.2,48.7v0.3c0,28,21.5,48.4,48.3,48.4c20.6,0,32.5-8.9,41.3-21.1l-19.5-13.9
		C909.5,675.2,903.8,679.8,894,679.8z"/>
	<path class="st0" d="M994,606.1c-28.9,0-50.5,21.8-50.5,48.7v0.3c0,26.8,21.4,48.4,50.2,48.4c28.9,0,50.6-21.8,50.6-48.7v-0.3
		C1044.3,627.7,1022.9,606.1,994,606.1z M1017.7,655.1c0,13.5-9.5,25-23.7,25c-14.3,0-24-11.8-24-25.3v-0.3c0-13.5,9.5-25,23.8-25
		c14.3,0,24,11.6,24,25.2V655.1z"/>
	<polygon class="st0" points="1110.7,644.2 1088.4,608 1061,608 1061,701.6 1086.4,701.6 1086.4,648 1110.2,684.4 1110.7,684.4 
		1134.6,647.9 1134.6,701.6 1160.4,701.6 1160.4,608 1133,608 	"/>
	<polygon class="st0" points="1206,664.7 1250.9,664.7 1250.9,644.2 1206,644.2 1206,629.9 1255.6,629.9 1255.6,608 1180.3,608 
		1180.3,701.6 1256.3,701.6 1256.3,679.5 1206,679.5 	"/>
	<path class="st0" d="M1309.2,608H1273v93.5h35.7c33.6,0,53.2-20,53.2-47v-0.3C1361.8,627.3,1342.5,608,1309.2,608z M1335.3,654.9
		c0,15.1-10.3,23.7-25.9,23.7h-10.5v-47.7h10.5c15.7,0,25.9,8.8,25.9,23.8V654.9z"/>
	<polygon class="st0" points="1429.6,608 1410.2,642.1 1391,608 1361.5,608 1397.2,666.5 1397.2,701.5 1423.1,701.5 1423.1,666.1 
		1458.6,608 	"/>
</g>
</svg>
