<?xml version="1.0" encoding="utf-8"?>
<!-- Generator: Adobe Illustrator 25.2.3, SVG Export Plug-In . SVG Version: 6.00 Build 0)  -->
<svg version="1.1" id="Capa_1" xmlns="http://www.w3.org/2000/svg" xmlns:xlink="http://www.w3.org/1999/xlink" x="0px" y="0px"
	 viewBox="0 0 1605 874.1" style="enable-background:new 0 0 1605 874.1;" xml:space="preserve">
<style type="text/css">
	.Sombra_x0020_paralela{fill:none;}
	.Esquinas_x0020_redondeadas_x0020_2_x0020_pt_x002E_{fill:#FFFFFF;stroke:#231F20;stroke-miterlimit:10;}
	.Reflejo_x0020_vivo_x0020_X{fill:none;}
	.Bisel_x0020_suave{fill:url(#SVGID_1_);}
	.Atardecer{fill:#FFFFFF;}
	.Follaje_GS{fill:#FFDD00;}
	.Pompadour_GS{fill-rule:evenodd;clip-rule:evenodd;fill:#44ADE2;}
	.st0{fill:#010101;}
	.st1{fill:#FBCC16;}
</style>
<linearGradient id="SVGID_1_" gradientUnits="userSpaceOnUse" x1="117.3605" y1="-100.2888" x2="118.0676" y2="-99.5817">
	<stop  offset="0" style="stop-color:#DEDFE3"/>
	<stop  offset="0.1783" style="stop-color:#DADBDF"/>
	<stop  offset="0.3611" style="stop-color:#CECFD3"/>
	<stop  offset="0.546" style="stop-color:#B9BCBF"/>
	<stop  offset="0.7324" style="stop-color:#9CA0A2"/>
	<stop  offset="0.9181" style="stop-color:#787D7E"/>
	<stop  offset="1" style="stop-color:#656B6C"/>
</linearGradient>
<polygon class="st0" points="1518.2,489.7 1518.2,347.8 1467.2,345.5 1467.2,535.1 1605,535.1 1605,490.6 "/>
<path class="st0" d="M1318.3,339.4L1240,535.1h53.4l13.4-34.8h70.5l13.4,34.8h54.7l-77.9-194.3L1318.3,339.4z M1321.6,458.1
	l20.9-54.7l20.4,55.2L1321.6,458.1z"/>
<path class="st0" d="M1163.5,411.3c-25.5-6.5-32-13-32-19.9c0-7.4,6-12.5,18.5-12.5c16.2,0,34.3,7,51.5,20l25-38
	c-19.9-17.6-44-27.8-75.1-27.8c-44,0-71.4,25.5-71.4,63.1c0,35.7,30.1,53.3,69.5,63.5c24.6,6.5,30.6,10.6,30.6,19.4
	c0,8.8-7.4,13.5-20.8,13.5c-21.3,0-41.3-8.3-59.4-24.1l-28.3,36.6c22.3,22.3,53.4,33.4,85.8,33.4c44.5,0,74.2-24.1,74.2-64
	C1231.7,436.8,1205.7,422,1163.5,411.3"/>
<polygon class="st0" points="857.9,380.7 857.9,333.4 710.9,333.4 710.9,535.1 859.3,535.1 859.3,487.8 763.3,487.8 763.3,455.4 
	849.1,455.4 849.1,411.3 763.3,411.3 763.3,380.7 "/>
<path class="st0" d="M549.1,334.8l-56.6,0.9l74.7,199.4h49.2l72.3-201.7c-19,0-37.6,0.5-56.1,0.5l-39.4,127.5L549.1,334.8z"/>
<path class="st1" d="M800.9,36.2c172,0,321.8,112.7,379.3,265.7h20.9C1144.5,127.1,980.8,0,786.5,0C597.7,0,436.4,120.6,376.1,289.3
	l64.4-1.4C499.4,137.3,634.4,36.2,800.9,36.2"/>
<path class="st0" d="M1055.9,403c0-43.6-30.6-69.6-77.9-69.6h-85.3v201.8h51.5v-61.7h26l32.5,61.7h59.4l-43.6-70.5
	C1041.1,454,1055.9,434,1055.9,403 M976.6,429.4h-32.5v-49.2h32.5c17.6,0,28.3,8.8,28.3,25C1004.9,419.7,994.7,429.4,976.6,429.4"/>
<path class="st0" d="M417.4,535.1h51.9V336.2c-17.1,0.5-34.8,0.9-51.9,0.9V535.1z"/>
<path class="st0" d="M119.6,452.6c0,26.4-13.5,38.9-33.9,38.9c-20.8,0-33.8-12.1-33.8-38.9V349.2c-17.1,0.9-34.8,1.8-51.9,2.3v103
	c0,57.5,32.9,83.9,85.3,83.9c51.9,0,85.8-26.9,85.8-88.1V344.5l-51.5,1.8V452.6z"/>
<polygon class="st0" points="379.3,338 328.8,339.4 328.8,442.8 253.2,341.7 205.9,343.1 205.9,535.1 256,535.1 256,428.9 
	334.3,535.1 379.3,535.1 "/>
<path class="st1" d="M1059.7,755.3c-68.3,58.2-156.9,93.3-261.2,93.3c-188.3,0-323.7-109-379.3-263h-39.9
	C435,755.9,595,874.1,785.1,874.1c120.5,0,227.1-44.1,303.6-118.8H1059.7z"/>
<path class="st0" d="M792.4,609.2h40.3c23.6,0,38.8,12.2,38.8,32.8v0.2c0,22.3-17,33.9-40.2,33.9h-13v26.8h-26V609.2z M830.8,655.7
	c9.1,0,14.9-5,14.9-12.3v-0.3c0-8.1-5.7-12.2-15-12.2h-12.3v24.8H830.8z"/>
<path class="st0" d="M885.8,609.2h44.3c14.3,0,24.2,3.7,30.5,10c5.5,5.5,8.3,12.6,8.3,21.8v0.3c0,14.4-7.6,24-19.3,28.9l22.3,32.7
	h-29.8l-18.9-28.4h-11.5v28.4h-26V609.2z M929.1,654.1c8.7,0,13.9-4.3,13.9-11.1v-0.3c0-7.5-5.5-11.2-14.1-11.2h-17.1v22.6H929.1z"
	/>
<polygon class="st0" points="985.5,609.2 1060.8,609.2 1060.8,631.1 1011.2,631.1 1011.2,645.4 1056.2,645.4 1056.2,665.9 
	1011.2,665.9 1011.2,680.8 1061.5,680.8 1061.5,702.9 985.5,702.9 "/>
<polygon class="st0" points="1078.3,609.2 1105.7,609.2 1128.1,645.4 1150.4,609.2 1177.9,609.2 1177.9,702.9 1152.1,702.9 
	1152.1,649 1128.1,685.7 1127.6,685.7 1103.7,649.2 1103.7,702.9 1078.3,702.9 "/>
<rect x="1198.5" y="609.2" class="st0" width="26" height="93.7"/>
<polygon class="st0" points="1245,609.2 1320.4,609.2 1320.4,631.1 1270.7,631.1 1270.7,645.4 1315.7,645.4 1315.7,665.9 
	1270.7,665.9 1270.7,680.8 1321,680.8 1321,702.9 1245,702.9 "/>
<path class="st0" d="M1337.8,609.2h44.3c14.3,0,24.3,3.7,30.5,10c5.5,5.5,8.3,12.6,8.3,21.8v0.3c0,14.4-7.6,24-19.3,28.9l22.4,32.7
	h-29.9l-18.9-28.4h-11.5v28.4h-26V609.2z M1381,654.1c8.7,0,13.9-4.3,13.9-11.1v-0.3c0-7.5-5.5-11.2-14.1-11.2h-17.1v22.6H1381z"/>
<polygon class="st0" points="1437.4,609.2 1512.8,609.2 1512.8,631.1 1463.1,631.1 1463.1,645.4 1508.1,645.4 1508.1,665.9 
	1463.1,665.9 1463.1,680.8 1513.5,680.8 1513.5,702.9 1437.4,702.9 "/>
</svg>
