<?xml version="1.0" encoding="utf-8"?>
<!-- Generator: Adobe Illustrator 25.2.3, SVG Export Plug-In . SVG Version: 6.00 Build 0)  -->
<svg version="1.1" id="Capa_1" xmlns="http://www.w3.org/2000/svg" xmlns:xlink="http://www.w3.org/1999/xlink" x="0px" y="0px"
	 viewBox="0 0 1601.8 872.4" style="enable-background:new 0 0 1601.8 872.4;" xml:space="preserve">
<style type="text/css">
	.Sombra_x0020_paralela{fill:none;}
	.Esquinas_x0020_redondeadas_x0020_2_x0020_pt_x002E_{fill:#FFFFFF;stroke:#231F20;stroke-miterlimit:10;}
	.Reflejo_x0020_vivo_x0020_X{fill:none;}
	.Bisel_x0020_suave{fill:url(#SVGID_1_);}
	.Atardecer{fill:#FFFFFF;}
	.Follaje_GS{fill:#FFDD00;}
	.Pompadour_GS{fill-rule:evenodd;clip-rule:evenodd;fill:#44ADE2;}
	.st0{fill:#010101;}
	.st1{fill:#ED1943;}
</style>
<linearGradient id="SVGID_1_" gradientUnits="userSpaceOnUse" x1="81.2363" y1="-101.9609" x2="81.9434" y2="-101.2538">
	<stop  offset="0" style="stop-color:#DEDFE3"/>
	<stop  offset="0.1783" style="stop-color:#DADBDF"/>
	<stop  offset="0.3611" style="stop-color:#CECFD3"/>
	<stop  offset="0.546" style="stop-color:#B9BCBF"/>
	<stop  offset="0.7324" style="stop-color:#9CA0A2"/>
	<stop  offset="0.9181" style="stop-color:#787D7E"/>
	<stop  offset="1" style="stop-color:#656B6C"/>
</linearGradient>
<g>
	<polygon class="st0" points="761.8,454.5 847.4,454.5 847.4,410.5 761.8,410.5 761.8,380 856.2,380 856.2,332.8 709.5,332.8 
		709.5,534.1 857.6,534.1 857.6,486.9 761.8,486.9 	"/>
	<path class="st0" d="M591.9,460.5l-44-126.3l-56.5,0.9l74.5,199h49.1l72.2-201.3c-19,0-37.5,0.5-56,0.5L591.9,460.5z"/>
	<path class="st0" d="M1053.9,402.2c0-43.5-30.5-69.4-77.8-69.4h-85.2v201.3h51.4v-61.6h26l32.4,61.6h59.3l-43.5-70.3
		C1039.1,453.1,1053.9,433.2,1053.9,402.2z M974.7,428.6h-32.4v-49.1h32.4c17.6,0,28.2,8.8,28.2,25
		C1003,418.8,992.8,428.6,974.7,428.6z"/>
	<path class="st0" d="M416.5,534.1h51.8V335.5c-17.1,0.5-34.7,0.9-51.8,0.9V534.1z"/>
	<polygon class="st0" points="1515.3,488.8 1515.3,347.1 1464.4,344.8 1464.4,534.1 1601.8,534.1 1601.8,489.7 	"/>
	<path class="st0" d="M119.4,451.7c0,26.4-13.4,38.9-33.8,38.9c-20.8,0-33.8-12-33.8-38.9V348.5c-17.1,0.9-34.7,1.9-51.8,2.3v102.8
		c0,57.4,32.9,83.8,85.2,83.8c51.8,0,85.6-26.9,85.6-87.9V343.9l-51.4,1.8V451.7z"/>
	<path class="st0" d="M1315.8,338.8l-78.2,195.3h53.2l13.4-34.7h70.3l13.5,34.7h54.6l-77.8-193.9L1315.8,338.8z M1319.1,457.3
		l20.8-54.6l20.4,55.1L1319.1,457.3z"/>
	<path class="st0" d="M1161.2,410.5c-25.5-6.5-31.9-13-31.9-19.9c0-7.4,6-12.5,18.5-12.5c16.2,0,34.2,6.9,51.4,19.9l25-38
		c-19.9-17.6-44-27.8-75-27.8c-44,0-71.3,25.5-71.3,63c0,35.6,30.1,53.2,69.4,63.4c24.5,6.5,30.5,10.6,30.5,19.5
		c0,8.8-7.4,13.4-20.8,13.4c-21.3,0-41.2-8.3-59.3-24.1l-28.2,36.6c22.2,22.2,53.2,33.3,85.6,33.3c44.4,0,74-24.1,74-63.9
		C1229.2,436,1203.4,421.2,1161.2,410.5z"/>
	<polygon class="st0" points="328.1,442 252.7,341.1 205.5,342.5 205.5,534.1 255.5,534.1 255.5,428.1 333.7,534.1 378.6,534.1 
		378.6,337.4 328.1,338.8 	"/>
</g>
<g>
	<path class="st1" d="M784.9,0C596.5,0,435.5,120.3,375.3,288.8l64.3-1.4C498.4,137,633.1,36.1,799.3,36.1
		c171.7,0,321.2,112.4,378.6,265.2h20.8C1142.2,126.8,978.8,0,784.9,0z"/>
	<path class="st1" d="M797,847C609,847,473.9,738.2,418.4,584.5h-39.8c55.5,169.9,215.2,287.9,404.9,287.9
		c120.3,0,226.7-44,303-118.6h-28.9C989.5,811.9,901,847,797,847z"/>
</g>
<g>
	<path class="st0" d="M975.1,679.7c-13.1,0-22.3-11-22.3-25v-0.3c0-13.6,9.2-24.8,22.3-24.8c9,0,15.1,4.4,20.4,11l19.5-15.1
		c-8.3-11.4-20.6-19.4-39.7-19.4c-28.3,0-49.2,21.4-49.2,48.6v0.3c0,27.9,21.5,48.4,48.3,48.4c20.6,0,32.5-8.9,41.3-21.1l-19.5-13.9
		C990.6,675.2,984.9,679.7,975.1,679.7z"/>
	<path class="st0" d="M1113.3,640v-0.3c0-9.2-2.8-16.3-8.3-21.8c-6.3-6.3-16.1-10-30.4-10h-44.2v93.6h25.9v-28.4h11.5l18.9,28.4
		h29.8l-22.3-32.6C1105.7,663.9,1113.3,654.5,1113.3,640z M1087.4,641.8c0,6.8-5.2,11.1-13.9,11.1h-17.2v-22.6h17.1
		c8.5,0,14,3.8,14,11.2V641.8z"/>
	<rect x="1130.4" y="608" class="st0" width="25.9" height="93.6"/>
	<polygon class="st0" points="1226.5,644.2 1204.2,608 1176.8,608 1176.8,701.5 1202.2,701.5 1202.2,647.9 1226,684.4 1226.5,684.4 
		1250.5,647.8 1250.5,701.5 1276.3,701.5 1276.3,608 1248.9,608 	"/>
	<polygon class="st0" points="1321.8,679.5 1321.8,664.6 1366.7,664.6 1366.7,644.2 1321.8,644.2 1321.8,629.9 1371.4,629.9 
		1371.4,608 1296.2,608 1296.2,701.5 1372.1,701.5 1372.1,679.5 	"/>
</g>
</svg>
