<?xml version="1.0" encoding="utf-8"?>
<!-- Generator: Adobe Illustrator 25.2.3, SVG Export Plug-In . SVG Version: 6.00 Build 0)  -->
<svg version="1.1" id="Capa_1" xmlns="http://www.w3.org/2000/svg" xmlns:xlink="http://www.w3.org/1999/xlink" x="0px" y="0px"
	 viewBox="0 0 1601.9 872.4" style="enable-background:new 0 0 1601.9 872.4;" xml:space="preserve">
<style type="text/css">
	.Sombra_x0020_paralela{fill:none;}
	.Esquinas_x0020_redondeadas_x0020_2_x0020_pt_x002E_{fill:#FFFFFF;stroke:#231F20;stroke-miterlimit:10;}
	.Reflejo_x0020_vivo_x0020_X{fill:none;}
	.Bisel_x0020_suave{fill:url(#SVGID_1_);}
	.Atardecer{fill:#FFFFFF;}
	.Follaje_GS{fill:#FFDD00;}
	.Pompadour_GS{fill-rule:evenodd;clip-rule:evenodd;fill:#44ADE2;}
	.st0{fill:#010101;}
	.st1{fill:#1E9CD8;}
</style>
<linearGradient id="SVGID_1_" gradientUnits="userSpaceOnUse" x1="116.7016" y1="-101.9609" x2="117.4087" y2="-101.2538">
	<stop  offset="0" style="stop-color:#DEDFE3"/>
	<stop  offset="0.1783" style="stop-color:#DADBDF"/>
	<stop  offset="0.3611" style="stop-color:#CECFD3"/>
	<stop  offset="0.546" style="stop-color:#B9BCBF"/>
	<stop  offset="0.7324" style="stop-color:#9CA0A2"/>
	<stop  offset="0.9181" style="stop-color:#787D7E"/>
	<stop  offset="1" style="stop-color:#656B6C"/>
</linearGradient>
<g>
	<polygon class="st0" points="761.8,454.5 847.4,454.5 847.4,410.5 761.8,410.5 761.8,380 856.2,380 856.2,332.8 709.5,332.8 
		709.5,534.1 857.6,534.1 857.6,486.9 761.8,486.9 	"/>
	<path class="st0" d="M592,460.5l-44-126.4l-56.5,0.9L566,534.1h49.1l72.2-201.3c-19,0-37.5,0.5-56,0.5L592,460.5z"/>
	<path class="st0" d="M1053.9,402.2c0-43.5-30.6-69.4-77.8-69.4H891v201.3h51.3v-61.6h26l32.4,61.6h59.2l-43.5-70.4
		C1039.1,453.1,1053.9,433.2,1053.9,402.2z M974.7,428.6h-32.4v-49.1h32.4c17.6,0,28.2,8.8,28.2,25
		C1003,418.9,992.8,428.6,974.7,428.6z"/>
	<path class="st0" d="M416.5,534.1h51.8V335.5c-17.1,0.5-34.7,0.9-51.8,0.9V534.1z"/>
	<polygon class="st0" points="1515.3,488.7 1515.3,347.1 1464.4,344.8 1464.4,534.1 1601.9,534.1 1601.9,489.6 	"/>
	<path class="st0" d="M119.4,451.7c0,26.4-13.4,38.9-33.8,38.9c-20.8,0-33.8-12-33.8-38.9V348.5c-17.1,0.9-34.7,1.9-51.8,2.3v102.8
		c0,57.4,32.9,83.8,85.1,83.8c51.8,0,85.6-26.9,85.6-87.9V343.9l-51.4,1.8V451.7z"/>
	<path class="st0" d="M1315.8,338.8l-78.2,195.3h53.2l13.4-34.7h70.4l13.4,34.7h54.6l-77.8-194L1315.8,338.8z M1319.1,457.3
		l20.8-54.6l20.4,55.1L1319.1,457.3z"/>
	<path class="st0" d="M1161.2,410.5c-25.4-6.5-31.9-13-31.9-19.9c0-7.4,6-12.5,18.5-12.5c16.2,0,34.2,7,51.3,19.9l25-38
		c-19.9-17.6-44-27.7-75-27.7c-44,0-71.3,25.4-71.3,62.9c0,35.6,30.1,53.2,69.5,63.4c24.5,6.5,30.5,10.6,30.5,19.4
		s-7.4,13.4-20.8,13.4c-21.3,0-41.2-8.3-59.3-24.1l-28.2,36.6c22.2,22.2,53.2,33.3,85.6,33.3c44.5,0,74.1-24.1,74.1-63.9
		C1229.3,436,1203.4,421.2,1161.2,410.5z"/>
	<polygon class="st0" points="328.1,442 252.7,341.1 205.5,342.5 205.5,534.1 255.5,534.1 255.5,428.1 333.7,534.1 378.6,534.1 
		378.6,337.4 328.1,338.8 	"/>
</g>
<g>
	<path class="st1" d="M785,0C596.6,0,435.5,120.3,375.4,288.8l64.3-1.4C498.5,137,633.2,36.1,799.3,36.1
		c171.7,0,321.2,112.5,378.6,265.2h20.8C1142.3,126.8,978.9,0,785,0z"/>
	<path class="st1" d="M797,847c-187.9,0-323-108.8-378.6-262.5h-39.8c55.5,169.9,215.2,287.9,405,287.9c120.2,0,226.7-44,303-118.6
		h-28.9C989.5,811.9,901,847,797,847z"/>
</g>
<g>
	<path class="st0" d="M929,640.1v-0.3c0-9.2-2.8-16.3-8.3-21.8c-6.3-6.3-16.2-10-30.5-10h-44.2v93.5H872v-28.3h11.5l18.9,28.3h29.8
		l-22.3-32.6C921.4,664,929,654.5,929,640.1z M903.1,641.8c0,6.8-5.2,11.1-13.9,11.1H872v-22.6h17.1c8.5,0,14,3.7,14,11.2V641.8z"/>
	<polygon class="st0" points="971.2,664.7 1016.1,664.7 1016.1,644.2 971.2,644.2 971.2,629.9 1020.7,629.9 1020.7,608 945.5,608 
		945.5,701.5 1021.4,701.5 1021.4,679.5 971.2,679.5 	"/>
	<path class="st0" d="M1070.5,607.3l-39.7,94.2h27.2l6.6-16.8h36.2l6.7,16.8h27.8l-39.9-94.2H1070.5z M1072.2,664.5l10.5-26.5
		l10.4,26.5H1072.2z"/>
	<polygon class="st0" points="1173.7,608 1147.7,608 1147.7,701.5 1218.9,701.5 1218.9,678.8 1173.7,678.8 	"/>
	<rect x="1234.2" y="608" class="st0" width="25.9" height="93.5"/>
	<polygon class="st0" points="1275.5,630.7 1303.4,630.7 1303.4,701.5 1329.3,701.5 1329.3,630.7 1357.4,630.7 1357.4,608 
		1275.5,608 	"/>
	<polygon class="st0" points="1431.7,608 1412.4,642 1393.1,608 1363.5,608 1399.2,666.5 1399.2,701.5 1425.2,701.5 1425.2,666.1 
		1460.7,608 	"/>
</g>
</svg>
